<?xml version="1.0" encoding="utf-8"?>
<!-- Generator: Adobe Illustrator 24.0.1, SVG Export Plug-In . SVG Version: 6.00 Build 0)  -->
<svg version="1.1" id="Capa_1" xmlns="http://www.w3.org/2000/svg" xmlns:xlink="http://www.w3.org/1999/xlink" x="0px" y="0px"
	 viewBox="0 0 512 512" style="enable-background:new 0 0 512 512;" xml:space="preserve">
<style type="text/css">
	.st0{fill:#F9C0F9;}
	.st1{fill:#FD6064;}
	.st2{fill:#F0484A;}
	.st3{fill:#FBBED5;}
	.st4{fill:#45068E;}
</style>
<path class="st0" d="M256,111.2C86.1-54.9-194.3,209,233.5,447c14,7.8,31,7.8,45,0C706.3,209,425.9-54.9,256,111.2z"/>
<path class="st1" d="M256,408.7c-0.4,0-0.7-0.1-1-0.3C84.7,313.6,39.7,219.3,54.4,162.6c9.2-35.4,42.6-59.2,83-59.2
	c21.6,0,54.4,6.8,87.7,39.4l30.9,30.2l30.9-30.2c33.4-32.6,66.1-39.4,87.7-39.4c40.4,0,73.8,23.8,83,59.2
	c14.7,56.7-30.3,151.1-200.6,245.9C256.7,408.6,256.4,408.7,256,408.7z"/>
<path class="st2" d="M84.4,166.2c8.1-33,34.7-56.5,68.4-61.8c-5.6-0.8-10.7-1.1-15.4-1.1c-40.5,0-73.8,23.8-83,59.2
	c-14.6,56.3,29.7,149.9,197.4,244C108.8,313.1,70.7,222.3,84.4,166.2z"/>
<g>
	<path class="st3" d="M373,278.3h-27.4c-4.1,0-7.5-3.4-7.5-7.5s3.4-7.5,7.5-7.5H373c4.1,0,7.5,3.4,7.5,7.5S377.2,278.3,373,278.3z"
		/>
	<path class="st3" d="M166.3,278.3H139c-4.1,0-7.5-3.4-7.5-7.5s3.4-7.5,7.5-7.5h27.4c4.1,0,7.5,3.4,7.5,7.5S170.5,278.3,166.3,278.3
		z"/>
</g>
<path class="st4" d="M458.7,78.2c-24-17.4-53.1-26.6-84.1-26.6c-42,0-83.9,17.4-118.6,49.2c-34.8-31.8-76.6-49.2-118.6-49.2
	c-31,0-60.1,9.2-84.1,26.6C28.8,96,11.9,120.6,4.4,149.6c-14.4,55.5,9.6,108,32.4,142.2c38,57.2,103,111.7,193.2,161.8
	c8,4.4,17,6.8,26.1,6.8c9.1,0,18.2-2.3,26.1-6.8c90.2-50.2,155.1-104.6,193.2-161.8c22.7-34.2,46.8-86.6,32.4-142.2
	C500.1,120.6,483.2,96,458.7,78.2z M462.8,283.5c-36.7,55.2-99.9,108.1-188,157c-5.7,3.2-12.3,4.9-18.8,4.9
	c-6.6,0-13.1-1.7-18.8-4.9c-88-49-151.3-101.8-188-157c-30.2-45.4-40.6-90.4-30.3-130.1c6.6-25.5,21.6-47.3,43.2-63
	c21.4-15.5,47.5-23.7,75.3-23.7c40.2,0,80.4,17.7,113.4,49.9c2.9,2.8,7.6,2.8,10.5,0c32.9-32.2,73.2-49.9,113.4-49.9
	c27.8,0,53.9,8.2,75.3,23.7c21.6,15.7,36.6,37.5,43.2,63C503.4,193.1,492.9,238.1,462.8,283.5z"/>
<path class="st4" d="M445.2,125c-2.8-3-7.6-3.2-10.6-0.4c-3,2.8-3.2,7.6-0.4,10.6c7.8,8.4,13.2,18.2,16.1,29.2
	c7.5,29-3,65.4-29.7,102.4c-33.2,46-88.6,90.9-164.6,133.6c-76-42.6-131.4-87.5-164.6-133.6c-26.7-37-37.3-73.4-29.7-102.4
	c8.3-32.1,38.8-53.6,75.7-53.6c20.2,0,50.9,6.5,82.5,37.3l30.9,30.2c2.9,2.8,7.6,2.8,10.5,0l30.9-30.2
	c31.6-30.8,62.3-37.3,82.5-37.3c13.4,0,26.4,2.9,37.7,8.4c3.7,1.8,8.2,0.2,10-3.5c1.8-3.7,0.2-8.2-3.5-10
	c-13.3-6.5-28.7-9.9-44.3-9.9c-23,0-57.8,7.2-93,41.6L256,162.5l-25.6-25.1c-35.2-34.4-70-41.6-93-41.6c-43.9,0-80.2,26.1-90.3,64.9
	c-8.7,33.4,2.7,74.3,32.1,114.9C114.1,324,172,370.8,251.4,415c2.9,1.6,6.4,1.6,9.3,0c79.3-44.1,137.2-91,172.1-139.4
	c29.4-40.7,40.8-81.5,32.1-114.9C461.4,147.2,454.8,135.2,445.2,125z"/>
<path class="st4" d="M366.8,241.3v-20.1c0-4.1-3.4-7.5-7.5-7.5s-7.5,3.4-7.5,7.5v20.1c0,4.1,3.4,7.5,7.5,7.5
	C363.5,248.8,366.8,245.4,366.8,241.3z"/>
<path class="st4" d="M160.2,241.3v-20.1c0-4.1-3.4-7.5-7.5-7.5s-7.5,3.4-7.5,7.5v20.1c0,4.1,3.4,7.5,7.5,7.5
	S160.2,245.4,160.2,241.3z"/>
<path class="st4" d="M268.8,256.6c-3.1,3.6-7.8,5.6-12.8,5.6c-5,0-9.7-2-12.8-5.6c-2.7-3.1-7.5-3.4-10.6-0.7s-3.4,7.5-0.7,10.6
	c6,6.8,14.8,10.7,24.1,10.7c9.4,0,18.2-3.9,24.1-10.7c2.7-3.1,2.4-7.9-0.7-10.6C276.3,253.1,271.6,253.5,268.8,256.6z"/>
</svg>
