<?xml version="1.0" encoding="iso-8859-1"?>
<!-- Generator: Adobe Illustrator 19.0.0, SVG Export Plug-In . SVG Version: 6.00 Build 0)  -->
<svg version="1.1" id="Capa_1" xmlns="http://www.w3.org/2000/svg" xmlns:xlink="http://www.w3.org/1999/xlink" x="0px" y="0px"
	 viewBox="0 0 512.001 512.001" style="enable-background:new 0 0 512.001 512.001;" xml:space="preserve">
<path style="fill:#FBBED5;" d="M256.001,111.161C86.053-54.93-194.274,209.039,233.523,447.047c13.965,7.77,30.991,7.77,44.958,0
	C706.276,209.038,425.948-54.931,256.001,111.161z"/>
<path style="fill:#FD6064;" d="M256.009,408.685c-0.359,0-0.694-0.086-0.997-0.255C84.652,313.649,39.675,219.275,54.391,162.56
	c9.194-35.436,42.551-59.244,83.007-59.244c21.606,0,54.365,6.844,87.727,39.448l30.886,30.184l30.886-30.185
	c33.36-32.604,66.118-39.447,87.726-39.447c40.445,0,73.795,23.808,82.99,59.243c14.715,56.72-30.255,151.096-200.607,245.873
	C256.703,408.599,256.368,408.685,256.009,408.685z"/>
<path style="fill:#F0484A;" d="M84.383,166.217c8.058-32.974,34.677-56.462,68.368-61.764c-5.561-0.818-10.715-1.137-15.353-1.137
	c-40.455,0-73.812,23.809-83.007,59.244C39.77,218.908,84.095,312.43,251.746,406.592
	C108.781,313.086,70.676,222.305,84.383,166.217z"/>
<g>
	<path style="fill:#FBBED5;" d="M373.026,278.315h-27.368c-4.142,0-7.498-3.357-7.498-7.498c0-4.141,3.356-7.498,7.498-7.498h27.368
		c4.142,0,7.498,3.357,7.498,7.498C380.524,274.958,377.168,278.315,373.026,278.315z"/>
	<path style="fill:#FBBED5;" d="M166.343,278.315h-27.368c-4.142,0-7.498-3.357-7.498-7.498c0-4.141,3.356-7.498,7.498-7.498h27.368
		c4.142,0,7.498,3.357,7.498,7.498C173.841,274.958,170.485,278.315,166.343,278.315z"/>
</g>
<path d="M458.714,78.215c-24.014-17.393-53.092-26.586-84.093-26.586c-41.992,0-83.857,17.423-118.613,49.213
	c-34.755-31.791-76.62-49.213-118.612-49.213c-31.006,0-60.089,9.193-84.104,26.585C28.789,95.96,11.868,120.637,4.359,149.579
	c-14.412,55.549,9.642,107.975,32.359,142.174c38.018,57.233,103.009,111.685,193.167,161.846
	c7.965,4.431,16.998,6.773,26.124,6.773c9.126,0,18.159-2.342,26.123-6.773c90.153-50.157,155.139-104.609,193.155-161.844
	c22.715-34.199,46.767-86.626,32.354-142.178C500.131,120.636,483.213,95.96,458.714,78.215z M462.795,283.458
	c-36.678,55.22-99.913,108.054-187.954,157.036c-5.74,3.193-12.252,4.882-18.832,4.882c-6.581,0-13.094-1.688-18.833-4.882
	C149.13,391.51,85.889,338.674,49.21,283.456c-30.152-45.392-40.642-90.384-30.334-130.111
	c6.623-25.528,21.566-47.308,43.213-62.985c21.441-15.528,47.482-23.735,75.309-23.735c40.184,0,80.446,17.72,113.371,49.898
	c2.913,2.848,7.567,2.848,10.481,0c32.925-32.178,73.187-49.898,113.371-49.898c27.822,0,53.858,8.207,75.296,23.735
	c21.643,15.677,36.586,37.456,43.209,62.984C503.434,193.073,492.945,238.065,462.795,283.458z"/>
<path d="M445.237,124.981c-2.824-3.028-7.569-3.192-10.597-0.37c-3.028,2.824-3.194,7.569-0.37,10.597
	c7.819,8.384,13.234,18.219,16.091,29.233c7.533,29.035-3.024,65.399-29.725,102.394c-33.21,46.012-88.58,90.936-164.619,133.563
	c-76.038-42.622-131.414-87.549-164.631-133.566c-26.703-36.995-37.261-73.357-29.728-102.389
	c8.323-32.077,38.763-53.629,75.749-53.629c20.213,0,50.93,6.473,82.486,37.312l30.886,30.184c2.914,2.848,7.568,2.848,10.481,0
	l30.886-30.185c31.555-30.838,62.272-37.311,82.485-37.311c13.371,0,26.422,2.895,37.743,8.373
	c3.727,1.804,8.211,0.243,10.015-3.484c1.804-3.728,0.244-8.211-3.484-10.015c-13.346-6.456-28.656-9.869-44.275-9.869
	c-23,0-57.799,7.214-92.966,41.582l-25.644,25.064l-25.644-25.063c-35.168-34.369-69.967-41.583-92.967-41.583
	c-43.925,0-80.198,26.064-90.264,64.858c-8.675,33.433,2.72,74.251,32.085,114.933c34.896,48.344,92.815,95.236,172.132,139.363
	c2.854,1.588,6.443,1.611,9.299,0.011c79.33-44.136,137.245-91.027,172.139-139.372c29.362-40.682,40.757-81.5,32.082-114.937
	C461.384,147.221,454.777,135.211,445.237,124.981z"/>
<path d="M366.848,241.283v-20.094c0-4.141-3.357-7.498-7.498-7.498c-4.141,0-7.498,3.357-7.498,7.498v20.094
	c0,4.141,3.357,7.498,7.498,7.498C363.49,248.781,366.848,245.424,366.848,241.283z"/>
<path d="M160.165,241.283v-20.094c0-4.141-3.357-7.498-7.498-7.498c-4.141,0-7.498,3.357-7.498,7.498v20.094
	c0,4.141,3.357,7.498,7.498,7.498C156.808,248.781,160.165,245.424,160.165,241.283z"/>
<path d="M268.847,256.569c-3.119,3.568-7.798,5.615-12.838,5.615c-5.04,0-9.72-2.046-12.838-5.615
	c-2.725-3.118-7.462-3.436-10.58-0.711c-3.118,2.725-3.436,7.462-0.711,10.58c5.966,6.826,14.761,10.741,24.129,10.741
	c9.368,0,18.162-3.915,24.129-10.741c2.725-3.118,2.407-7.855-0.711-10.58C276.309,253.133,271.573,253.451,268.847,256.569z"/>
<g>
</g>
<g>
</g>
<g>
</g>
<g>
</g>
<g>
</g>
<g>
</g>
<g>
</g>
<g>
</g>
<g>
</g>
<g>
</g>
<g>
</g>
<g>
</g>
<g>
</g>
<g>
</g>
<g>
</g>
</svg>
