<?xml version="1.0" encoding="utf-8"?>
<!-- Generator: Adobe Illustrator 24.0.1, SVG Export Plug-In . SVG Version: 6.00 Build 0)  -->
<svg version="1.1" id="Capa_1" xmlns="http://www.w3.org/2000/svg" xmlns:xlink="http://www.w3.org/1999/xlink" x="0px" y="0px"
	 viewBox="0 0 512 512" style="enable-background:new 0 0 512 512;" xml:space="preserve">
<style type="text/css">
	.st0{fill:#E8DFF4;}
	.st1{fill:#D3C9E2;}
	.st2{fill:#FFA076;}
	.st3{fill:#C1E9FA;}
	.st4{fill:#5C586F;}
	.st5{fill:#4F4C5F;}
	.st6{fill:#FED2A4;}
	.st7{fill:#FFBD86;}
	.st8{fill:#FFAD6D;}
	.st9{fill:#EF8156;}
	.st10{fill:#45068E;}
</style>
<g>
	<g>
		<path class="st0" d="M256,65.1L66.9,165.2v297c0,22.6,18.4,41,41,41h296.1c22.6,0,41-18.4,41-41v-297L256,65.1z"/>
		<path class="st1" d="M95,266.7c0-45.3,7.6-88.5,21.2-127.7l-49.3,26.1v297c0,22.6,18.4,41,41,41h70.2C127,443.9,95,359.9,95,266.7
			z"/>
		<path class="st2" d="M492.1,144.3L279.5,15.4c-14.4-8.8-32.6-8.8-47,0L19.9,144.3c-12.2,7.4-16.1,23.3-8.7,35.4l20.2,33.4
			c7.4,12.2,23.3,16.1,35.4,8.7L256,107.2l189.1,114.7c12.2,7.4,28,3.5,35.4-8.7l20.2-33.4C508.1,167.6,504.3,151.7,492.1,144.3
			L492.1,144.3z"/>
		<path class="st3" d="M353.2,216.7H158.8c-16.7,0-30.3,15.6-30.3,34.8v169.2h254.9V251.4C383.5,232.2,369.9,216.7,353.2,216.7
			L353.2,216.7z"/>
		<path class="st4" d="M166.1,261c12.1-38.1,47.6-65.8,89.9-65.8c42.1,0,77.9,27.6,90,65.8l-90,45.5L166.1,261z"/>
		<path class="st5" d="M222,201.5c-26.6,10.3-47.3,32.3-55.9,59.5l20.6,10.4C189.8,244.3,202.7,219.9,222,201.5L222,201.5z"/>
		<path class="st6" d="M350.3,289.6c0,52.1-42.2,94.3-94.3,94.3c-52.1,0-94.3-42.2-94.3-94.3c0-9.9,1.5-19.5,4.4-28.5
			c10.8,1.6,63.4,7.8,89.9-20.3c26.6,28.2,79.2,21.9,90,20.3C348.8,270,350.3,279.6,350.3,289.6L350.3,289.6z"/>
		<path class="st7" d="M239.9,370.5c0-13.2,10.7-23.9,23.9-23.9h45.6c13.2,0,23.9,10.7,23.9,23.9c0,13.2-10.7,23.9-23.9,23.9h-61.2
			L239.9,370.5z"/>
		<path class="st7" d="M185.9,284.3c0-7.4,0.7-14.5,2.1-21.5c-10.3-0.1-18.4-1.2-21.9-1.7c-2.9,9-4.4,18.6-4.4,28.5
			c0,47.6,35.3,87,81.1,93.4C208.6,362.1,185.9,325.7,185.9,284.3z"/>
		<path class="st8" d="M248.2,346.6h-45.6c-13.2,0-23.9,10.7-23.9,23.9c0,13.2,10.7,23.9,23.9,23.9h45.6c13.2,0,23.9-10.7,23.9-23.9
			C272.1,357.3,261.4,346.6,248.2,346.6L248.2,346.6z"/>
		<path class="st2" d="M383.5,394.4H128.5c-10.8,0-19.5,8.7-19.5,19.5v13.4c0,10.8,8.7,19.5,19.5,19.5h254.9
			c10.8,0,19.5-8.7,19.5-19.5v-13.4C403,403.1,394.3,394.4,383.5,394.4z"/>
		<g>
			<path class="st9" d="M153.2,63.5L19.9,144.3c-12.2,7.4-16.1,23.3-8.7,35.4l20.2,33.4c7.4,12.2,23.3,16.1,35.4,8.7l33.4-20.3
				C108.9,150.1,127.4,103,153.2,63.5z"/>
			<path class="st9" d="M145.8,394.4h-17.2c-10.8,0-19.5,8.7-19.5,19.5v13.4c0,10.8,8.7,19.5,19.5,19.5h47.6
				C159.1,434.2,147.7,415.5,145.8,394.4z"/>
		</g>
	</g>
	<g>
		<path class="st10" d="M205,316.9L205,316.9c4.1,0,7.5-3.4,7.5-7.5l0-9.6c0-4.1-3.4-7.5-7.5-7.5c0,0,0,0,0,0
			c-4.1,0-7.5,3.4-7.5,7.5l0,9.6C197.5,313.6,200.8,316.9,205,316.9z"/>
		<path class="st10" d="M307.1,317L307.1,317c4.1,0,7.5-3.4,7.5-7.5l0-9.6c0-4.1-3.4-7.5-7.5-7.5c0,0,0,0,0,0
			c-4.1,0-7.5,3.4-7.5,7.5l0,9.6C299.6,313.7,302.9,317,307.1,317z"/>
		<path class="st10" d="M242.5,321.2c0.1,0,27,0,26.9,0c4.1,0,7.5-3.4,7.5-7.5c0-4.1-3.4-7.5-7.5-7.5c-2.1,0-28.2,0-26.9,0
			c-4.1,0-7.5,3.4-7.5,7.5C235.1,317.9,238.4,321.2,242.5,321.2z"/>
		<path class="st10" d="M23.8,150.8L79,117.3c3.5-2.1,4.7-6.8,2.5-10.3c-2.1-3.5-6.8-4.7-10.3-2.5L16,137.9
			c-15.7,9.5-20.7,30-11.2,45.7l20.2,33.4c7.4,12.2,21.2,17.9,34.3,15.5v229.6c0,26.7,21.8,48.5,48.5,48.5h296.1
			c26.7,0,48.5-21.8,48.5-48.5V232.6c13.6,2.4,27.2-3.7,34.3-15.5l20.2-33.4c9.5-15.7,4.5-36.2-11.2-45.7L283.4,9
			c-16.9-10.2-37.9-10.2-54.8,0l-131,79.4c-3.5,2.1-4.7,6.8-2.5,10.3c2.1,3.5,6.8,4.7,10.3,2.5l131-79.4c12.1-7.3,27.1-7.3,39.2,0
			l212.6,128.9c8.6,5.2,11.4,16.5,6.2,25.1l-20.2,33.4c-5.2,8.6-16.5,11.4-25.1,6.2l-67.1-40.7c-2.6-1.6-5.9-1.4-8.3,0.3
			c-4.3,3.1-4.1,9.7,0.5,12.5l63.5,38.5v236.1c0,18.5-15,33.5-33.5,33.5H107.9c-18.5,0-33.5-15-33.5-33.5V226.1L256,116l91.7,55.6
			c6.5,3.9,14.3-3.4,10.4-10.2c-1.8-3.1,1.7,0.4-98.2-60.6c-2.4-1.4-5.4-1.4-7.8,0L63,215.4c-8.6,5.2-19.9,2.5-25.1-6.2l-20.2-33.4
			C12.4,167.3,15.2,156,23.8,150.8L23.8,150.8z"/>
		<path class="st10" d="M353.2,209.2h-34.7c-37.7-29.3-89.3-28-125.2,0h-34.5c-20.8,0-37.8,19-37.8,42.3V388
			c-11.3,3.3-19.5,13.7-19.5,26v13.4c0,14.9,12.1,27,27,27h254.9c14.9,0,27-12.1,27-27v-13.4c0-12.3-8.3-22.7-19.5-26V251.4
			C391,228.1,374,209.2,353.2,209.2L353.2,209.2z M376,251.4v135.4h-39.8c6.3-10.3,6.2-23.5-0.6-33.7c21.4-26.7,27.8-62.2,17.6-94.4
			v0v0c-4-12.5-10.5-24.5-19-34.6h19.1C365.7,224.2,376,236.4,376,251.4L376,251.4z M171.5,269.3c28.4,2.8,62.5-0.1,84.4-18.3
			c22,18.3,55.8,21.2,84.5,18.3c5.9,24.8,0.9,52.1-16,73.7c-4.5-2.5-9.8-3.9-15.1-3.9c-47.1,0.4-45.6-0.8-53.4,1
			c-1.7-0.4-3.8-0.8-6-0.9c-0.1,0-48.5-0.4-53.5,0.5c-3.2,0.6-6.3,1.8-9,3.3C170.7,321.5,165.6,294.1,171.5,269.3L171.5,269.3z
			 M193.6,356.8c2.7-1.8,5.9-2.7,9-2.7c46.4,0.2,48-0.9,53.4,2c2.3,1.2,4.3,3.1,5.9,5.4c7.2,10.9-0.7,25.3-13.7,25.3h-45.6
			C186.6,386.9,180,365.8,193.6,356.8L193.6,356.8z M275,354.1c37.2,0,36.8-0.5,41.2,1.5c16.1,7.4,10.5,31.3-6.8,31.3H275
			C280.9,377.1,281.3,364.5,275,354.1L275,354.1z M335.6,254.7c-24.9,2.2-56.9-0.8-74.1-19.1c-3-3.1-7.9-3.1-10.9,0
			c-17.3,18.3-49,21.2-74.1,19.1c9.1-20.7,23.1-30.8,25.1-32.9C245.2,186.7,312.1,201.3,335.6,254.7z M136,251.4
			c0-15,10.2-27.3,22.8-27.3h19c-31.1,37.3-31.6,91.2-1.3,129c-6.8,10.3-6.9,23.4-0.6,33.7H136V251.4z M395.5,413.9v13.4
			c0,6.6-5.4,12-12,12H128.5c-6.6,0-12-5.4-12-12v-13.4c0-6.6,5.4-12,12-12h254.9C390.1,401.9,395.5,407.3,395.5,413.9z"/>
	</g>
</g>
</svg>
