<?xml version="1.0" encoding="utf-8"?>
<!-- Generator: Adobe Illustrator 24.0.1, SVG Export Plug-In . SVG Version: 6.00 Build 0)  -->
<svg version="1.1" id="Capa_1" xmlns="http://www.w3.org/2000/svg" xmlns:xlink="http://www.w3.org/1999/xlink" x="0px" y="0px"
	 viewBox="0 0 512 512" style="enable-background:new 0 0 512 512;" xml:space="preserve">
<style type="text/css">
	.st0{fill:#B8AFC9;}
	.st1{fill:#E8DFF4;}
	.st2{fill:#D3C9E2;}
	.st3{fill:#45068E;}
</style>
<g>
	<g>
		<path class="st0" d="M402.5,404.1h-102l-68.5-177.5l170.5-76.2L402.5,404.1z"/>
		<path class="st1" d="M109.5,49c-56.3,0-102,79.5-102,177.5v216.1c0,12.6,14.3,19.8,24.4,12.2c14.5-10.8,34.3-10.8,48.8,0
			c14.5,10.8,34.3,10.8,48.8,0s34.3-10.8,48.8,0c14.5,10.8,34.3,10.8,48.8,0c14.5-10.8,34.3-10.8,48.8,0
			c10.1,7.5,24.4,0.3,24.4-12.2V226.6L402.5,49H109.5z"/>
		<ellipse class="st2" cx="402.5" cy="226.6" rx="102" ry="177.5"/>
		<ellipse class="st0" cx="402.5" cy="226.6" rx="43.8" ry="76.2"/>
		<path class="st2" d="M37.2,271.6C37.2,182,76.5,102,138.1,49h-28.6c-56.3,0-102,79.5-102,177.5v216.1c0,12.6,14.3,19.8,24.4,12.2
			c14.5-10.8,34.3-10.8,48.8,0c7.8,5.8,17.2,8.5,26.4,8.1C63.6,411.9,37.2,344.9,37.2,271.6z"/>
	</g>
	<g>
		<path class="st3" d="M402.5,142.9c-28.8,0-51.3,36.8-51.3,83.7s22.5,83.7,51.3,83.7s51.3-36.8,51.3-83.7S431.2,142.9,402.5,142.9z
			 M402.5,295.3c-19.7,0-36.3-31.5-36.3-68.7s16.6-68.7,36.3-68.7s36.3,31.5,36.3,68.7C438.8,263.8,422.1,295.3,402.5,295.3z"/>
		<path class="st3" d="M256.3,263.5c4.1,0,7.5-3.4,7.5-7.5s-3.4-7.5-7.5-7.5H227c-4.1,0-7.5,3.4-7.5,7.5s3.4,7.5,7.5,7.5H256.3z"/>
		<path class="st3" d="M205.3,256c0-4.1-3.4-7.5-7.5-7.5h-29.2c-4.1,0-7.5,3.4-7.5,7.5s3.4,7.5,7.5,7.5h29.2
			C202,263.5,205.3,260.2,205.3,256z"/>
		<path class="st3" d="M146.9,256c0-4.1-3.4-7.5-7.5-7.5h-29.2c-4.1,0-7.5,3.4-7.5,7.5s3.4,7.5,7.5,7.5h29.2
			C143.5,263.5,146.9,260.2,146.9,256z"/>
		<path class="st3" d="M88.4,256c0-4.1-3.4-7.5-7.5-7.5H51.7c-4.1,0-7.5,3.4-7.5,7.5s3.4,7.5,7.5,7.5h29.2
			C85.1,263.5,88.4,260.2,88.4,256z"/>
		<path class="st3" d="M89,358.2L89,358.2c4.1,0,7.5-3.4,7.5-7.5l0-12.2c0-4.1-3.4-7.5-7.5-7.5c0,0,0,0,0,0c-4.1,0-7.5,3.4-7.5,7.5
			l0,12.2C81.5,354.8,84.8,358.2,89,358.2z"/>
		<path class="st3" d="M219,331.1c-4.1,0-7.5,3.4-7.5,7.5l0,12.2c0,4.1,3.4,7.5,7.5,7.5h0c4.1,0,7.5-3.4,7.5-7.5l0-12.2
			C226.5,334.5,223.2,331.1,219,331.1C219.1,331.1,219,331.1,219,331.1z"/>
		<path class="st3" d="M136.9,363.6l34.3,0h0c4.1,0,7.5-3.4,7.5-7.5c0-4.1-3.4-7.5-7.5-7.5l-34.3,0c0,0,0,0,0,0
			c-4.1,0-7.5,3.4-7.5,7.5C129.4,360.3,132.7,363.6,136.9,363.6z"/>
		<path class="st3" d="M36.4,460.9c11.7-8.8,28.1-8.8,39.9,0c17,12.7,40.8,12.7,57.8,0c11.7-8.8,28.1-8.8,39.9,0
			c17,12.7,40.8,12.7,57.8,0c11.7-8.8,28.1-8.8,39.9,0c15,11.2,36.4,0.5,36.4-18.3v-31h94.5c23.4,0,45.6-12,64.2-34.8
			c2.6-3.2,2.2-7.9-1-10.6c-3.2-2.6-7.9-2.2-10.6,1c-15.7,19.2-33.9,29.3-52.6,29.3c-52.3,0-94.5-77.8-94.5-170
			c0-31.8,5-65.1,16.3-95c1.5-3.9-0.5-8.2-4.4-9.7c-3.9-1.5-8.2,0.5-9.7,4.4c-12,31.6-17.3,66.7-17.3,100.3v21.9h-7.5
			c-4.1,0-7.5,3.4-7.5,7.5s3.4,7.5,7.5,7.5h7.5v179.1c0,6.4-7.3,10.1-12.4,6.2c-17-12.7-40.8-12.7-57.8,0c-11.7,8.8-28.1,8.8-39.9,0
			c-17-12.7-40.8-12.7-57.8,0c-11.7,8.8-28.1,8.8-39.9,0c-17-12.7-40.8-12.7-57.8,0c-5.1,3.8-12.4,0.2-12.4-6.2V263.5h7.5
			c4.1,0,7.5-3.4,7.5-7.5s-3.4-7.5-7.5-7.5H15v-21.9c0-46.1,10.3-89.4,28.9-121.8c17.9-31.1,41.2-48.2,65.6-48.2h249.3
			c-11.7,8.5-24.3,21.9-35.4,41.6c-2,3.6-0.8,8.2,2.8,10.2c3.6,2,8.2,0.8,10.2-2.8c14.4-25.4,37-49,66-49
			c24.5,0,47.8,17.1,65.6,48.2c18.6,32.4,28.9,75.7,28.9,121.8c0,43.7-9.4,85.4-26.4,117.3c-2,3.7-0.6,8.2,3.1,10.1
			c3.6,1.9,8.2,0.6,10.1-3.1c18.1-34,28.1-78.2,28.1-124.3c0-48.7-11-94.6-30.9-129.3c-20.7-36-48.6-55.8-78.6-55.8c0,0,0,0,0,0
			h-293c-30,0-58,19.8-78.6,55.8C11,132,0,177.9,0,226.6v216.1C0,461.4,21.4,472.1,36.4,460.9L36.4,460.9z M358.8,396.6H308v-76
			C317.9,349.1,334.5,379,358.8,396.6z"/>
	</g>
</g>
</svg>
