<?xml version="1.0" encoding="utf-8"?>
<!-- Generator: Adobe Illustrator 24.0.1, SVG Export Plug-In . SVG Version: 6.00 Build 0)  -->
<svg version="1.1" id="Capa_1" xmlns="http://www.w3.org/2000/svg" xmlns:xlink="http://www.w3.org/1999/xlink" x="0px" y="0px"
	 viewBox="0 0 512 512" style="enable-background:new 0 0 512 512;" xml:space="preserve">
<style type="text/css">
	.st0{fill:#FFBD86;}
	.st1{fill:#FF9E8E;}
	.st2{fill:#FED2A4;}
	.st3{fill:#9A69E2;}
	.st4{fill:#8E41D8;}
	.st5{fill:#80DFB5;}
	.st6{fill:#FB8978;}
	.st7{fill:#00C67F;}
	.st8{fill:#FF889E;}
	.st9{fill:#45068E;}
</style>
<g>
	<g>
		<circle class="st0" cx="419.1" cy="170.3" r="39.1"/>
		<path class="st1" d="M117.2,131.3L117.2,131.3C130.6,60.8,192.5,7.5,266.8,7.5s136.3,53.3,149.6,123.8l0,0L117.2,131.3
			L117.2,131.3z"/>
		<path class="st2" d="M151.1,258.7c-10.9-12.7-30.5-12.9-41.6-0.4c-9,10.2-9.2,25.6-0.4,36c20.4,23.8,46,43,75.1,55.6l19.4-23.3
			l-19.4-38.9L151.1,258.7z"/>
		<path class="st0" d="M382.6,258.7c10.9-12.7,30.5-12.9,41.5-0.4c9,10.2,9.2,25.6,0.4,36c-20.4,23.8-46,43-75.1,55.6L330,326.6
			l19.4-38.9L382.6,258.7z"/>
		<path class="st3" d="M307.7,365.8l-40.9,17.4L231,365.8l-41.4,17.4c4.7,12.5,12.4,23.6,22.2,32.4v26.3l27.6,31.3l27.6-31.3
			l27.6,31.3l27.6-31.3v-26.3c1.1-1,2.2-2,3.2-3.1c8.2-8.2,14.7-18.2,18.9-29.3L307.7,365.8z"/>
		<path class="st4" d="M214.8,372.5l-25.3,10.6c4.7,12.5,12.4,23.6,22.2,32.4v26.3l27.6,31.3l1-1.1
			C225.1,443.8,215.9,409.6,214.8,372.5L214.8,372.5z"/>
		<path class="st5" d="M349.4,239.9v114.2c0,10.2-1.9,20-5.3,29H189.5c-3.4-9-5.3-18.8-5.3-29V239.9L349.4,239.9z"/>
		<circle class="st0" cx="266.8" cy="312" r="38.8"/>
		<path class="st6" d="M173.5,39.5c-4.2-17.4-19.4-30.6-37.7-31.9c-20.2-1.4-37.7,11.6-43,29.9c-3.5,11.8-11.4,21.8-22.6,26.8
			c-2.4,1.1-4.7,1.9-6.9,2.5c-9.6,2.7-12.7,14.8-5.6,21.8c15.2,15.1,40.2,28.4,72.1,4.9c-5.7,11.8-10,24.5-12.5,37.8l0,0H149
			c8.9-49.3,39.5-92,82.5-119.7C210,16.7,190.3,26.4,173.5,39.5L173.5,39.5z"/>
		<path class="st7" d="M214.7,365.4c0-57.5,1.1-97.7,9.2-125.5h-39.7v114.2c0,10.2,1.9,20,5.3,29h25.8
			C215,377.3,214.7,371.4,214.7,365.4L214.7,365.4z"/>
		<path class="st2" d="M419.1,159.8c0,26.2-6.6,50.8-18.2,72.3c-25.7,47.6-76.1,80-134.1,80s-108.3-32.4-134.1-80
			c-11.6-21.5-18.2-46.1-18.2-72.3c0-9.7,0.9-19.3,2.7-28.5l0,0c0,0,57.3-94.2,149.6-19.8c92.3-74.4,149.6,19.8,149.6,19.8l0,0
			C418.2,140.5,419.1,150,419.1,159.8z"/>
		<g>
			<g>
				<g>
					<ellipse class="st8" cx="184.3" cy="196.4" rx="30.5" ry="24.3"/>
				</g>
				<g>
					<ellipse class="st8" cx="349.4" cy="196.4" rx="30.5" ry="24.3"/>
				</g>
			</g>
		</g>
		<path class="st0" d="M322,441.8v35.1c0,7.6-3.1,14.5-8.1,19.5s-11.9,8.1-19.5,8.1c-15.2,0-27.6-12.3-27.6-27.6v-35.1H322z"/>
		<path class="st2" d="M266.8,441.8v35.1c0,7.6-3.1,14.5-8.1,19.5s-11.9,8.1-19.5,8.1c-15.2,0-27.6-12.3-27.6-27.6v-35.1h27.1H266.8
			z"/>
		<g>
			<path class="st0" d="M146.3,161.4c0-24.8,5.4-48.4,15.2-69.9c-28.4,13.9-44.2,39.9-44.2,39.9l0,0c0,0,0,0,0,0
				c-0.9-0.1-1.7-0.1-2.7-0.1c-21.6,0-39.1,17.5-39.1,39.1c0,21.6,17.5,39.1,39.1,39.1c2.9,0,5.5-0.3,8-0.9
				c2.8,8.2,6.2,16.1,10.2,23.5c19.1,35.3,51.8,62.2,91,73.8C176.6,272.3,146.3,220.1,146.3,161.4L146.3,161.4z"/>
			<path class="st0" d="M227.1,441.8h-15.4v35.1c0,15.2,12.3,27.6,27.6,27.6c6.8,0,12.9-2.4,17.7-6.5
				C244.6,482.1,234.4,463,227.1,441.8z"/>
		</g>
	</g>
	<g>
		<path class="st9" d="M187.5,177.5c4.1,0,7.5-3.4,7.5-7.5c0-3.9,3.1-7,7-7s7,3.1,7,7c0,4.1,3.4,7.5,7.5,7.5s7.5-3.4,7.5-7.5
			c0-12.1-9.9-22-22-22s-22,9.9-22,22C180,174.1,183.4,177.5,187.5,177.5L187.5,177.5z"/>
		<path class="st9" d="M317.1,177.5c4.1,0,7.5-3.4,7.5-7.5c0-3.9,3.1-7,7-7s7,3.1,7,7c0,4.1,3.4,7.5,7.5,7.5s7.5-3.4,7.5-7.5
			c0-12.1-9.9-22-22-22s-22,9.9-22,22C309.6,174.1,313,177.5,317.1,177.5z"/>
		<path class="st9" d="M287.9,191.9c2.7-3.1,2.4-7.9-0.7-10.6s-7.9-2.4-10.6,0.7c-5.1,5.9-14.3,5.9-19.5,0
			c-2.7-3.1-7.5-3.4-10.6-0.7c-3.1,2.7-3.4,7.5-0.7,10.6C256.9,204.6,276.7,204.6,287.9,191.9L287.9,191.9z"/>
		<path class="st9" d="M114.9,110.1c-1.5,4.5-2.7,9.1-3.8,13.7C87,125.6,68,145.8,68,170.3c0,26.7,22.6,48.2,49.6,46.5
			c3.5,9.2,7.4,17.1,12,24.8c-9.8,0.2-19.1,4.4-25.7,11.8c-11.5,13-11.7,32.7-0.4,45.8c7,8.2,14.7,16,23,23.1
			c3.1,2.7,7.9,2.4,10.6-0.8c2.7-3.1,2.4-7.9-0.8-10.6c-7.7-6.7-14.9-13.9-21.4-21.5c-6.4-7.5-6.3-18.7,0.3-26.1
			c7.9-9,22.3-8.8,30.1,0.2c9.3,10.8,19.9,20.3,31.5,28.3v46.4c-6.3-3.2-12.4-6.7-18.4-10.6c-3.5-2.3-8.1-1.3-10.4,2.2
			c-2.3,3.5-1.3,8.1,2.2,10.4c8.5,5.5,17.4,10.5,26.6,14.7c0.1,10.7,2,21.1,5.7,31c4.7,12.4,12.1,23.7,21.7,33v58.1
			c0,19.3,15.7,35.1,35.1,35.1c10.7,0,20.7-4.7,27.6-13.4c6.4,8.2,16.4,13.4,27.6,13.4c19.4,0,35.1-15.7,35.1-35.1
			c0-19.4,0-38.7,0-58.1c9-8.6,16.8-20.1,21.7-33c3.7-9.9,5.6-20.3,5.7-31c28-13,53.2-32.1,73.3-55.6c11.2-13.1,11-32.8-0.4-45.8
			c-6.5-7.4-15.8-11.7-25.7-11.8c4.6-7.7,8.5-15.5,12-24.8c27,1.7,49.6-19.8,49.6-46.5c0-24.5-19.1-44.7-43.2-46.5
			c-8.7-37.9-30.8-71.1-62.6-94c-3.4-2.4-8.1-1.6-10.5,1.7s-1.6,8.1,1.7,10.5c21,15.1,37.3,35.1,47.7,58.1
			c-37.4-32-83.5-34.8-132,1.8c-44.2-33.4-91.1-36.8-132-1.9C157.8,49.3,209,15,266.8,15c20.4,0,40.2,4.2,58.7,12.4
			c3.8,1.7,8.2,0,9.9-3.8c1.7-3.8,0-8.2-3.8-9.9C311.1,4.6,289.4,0,266.8,0c-33,0-64,10.1-89.8,27.6c-7.7-15.4-23.2-26.3-40.7-27.5
			C113-1.5,92.2,13,85.6,35.3C82.2,46.9,74.1,56,61.2,59.6c-15.1,4.2-20,23.3-8.9,34.4C70.1,111.4,91.6,118.7,114.9,110.1
			L114.9,110.1z M262.1,117.3c2.7,2.2,6.7,2.2,9.4,0c30.6-24.7,65.2-36.3,99.9-17.9c21.3,11.4,34.7,29.9,37.9,34.7
			c21.8,121.7-110.4,216.4-221,147.3c-4-3-14.7-8.6-31.9-28c-28.9-34.1-39.5-78.1-32.1-119.3C156.2,86.7,209.2,74.7,262.1,117.3
			L262.1,117.3z M191.8,350v-49.1c8.8,4.7,18.6,8.8,28.8,11.9c0.4,25.2,21,45.6,46.2,45.6c25.3,0,45.9-20.4,46.2-45.6
			c9.6-2.9,19.3-6.8,28.8-11.9v53.3c0,7.4-1.1,14.6-3.1,21.5H194.9C191,362.5,191.9,352.4,191.8,350L191.8,350z M297.8,316.5
			c-2.2,15.1-15.2,26.8-30.9,26.8c-15.7,0-28.8-11.7-30.9-26.8C256.2,320.5,277.6,320.5,297.8,316.5z M112.7,201.9
			c-16.5-1-29.7-14.8-29.7-31.5c0-15.3,10.9-28.1,25.4-31C105.8,159.1,107,181,112.7,201.9z M239.3,497c-11.1,0-20.1-9-20.1-20.1
			v-27.6h40.1v27.6C259.3,488,250.4,497,239.3,497L239.3,497z M314.5,476.9c0,11.1-9,20.1-20.1,20.1c-11.1,0-20.1-9-20.1-20.1v-27.6
			h40.1V476.9z M319.9,407.2c-2.7,2.7-5.4,4.2-5.4,8.4v18.8h-40.1v-25.1c0-4.1-3.4-7.5-7.5-7.5c-4.1,0-7.5,3.4-7.5,7.5v25.1h-40.1
			v-18.8c0-2.1-0.9-4.2-2.5-5.6c-6.2-5.6-11.4-12.1-15.4-19.3h131.1C329,396.7,324.8,402.3,319.9,407.2L319.9,407.2z M418.5,263.3
			c6.6,7.4,6.7,18.7,0.3,26.1c-17.2,20.1-38.4,36.8-61.9,48.7v-46.4c11.6-7.9,22.2-17.4,31.5-28.3
			C396.3,254.4,410.5,254.2,418.5,263.3L418.5,263.3z M450.7,170.3c0,16.8-13.2,30.6-29.7,31.5c5.9-21.8,5.4-39,5.6-42.1
			c0-6.9-0.5-14.2-1.3-20.5C439.8,142.2,450.7,155,450.7,170.3L450.7,170.3z M65.3,74c18-5,29.9-18.1,34.7-34.4
			c4.6-15.5,19.1-25.6,35.3-24.5c13.2,0.9,24.7,9.6,29.5,21.7c-17,14.1-31,31.6-41,51.7c-21.6,15.1-42,13.4-60.8-5.3
			C59.9,80.3,61.3,75.1,65.3,74z"/>
	</g>
</g>
</svg>
