<?xml version="1.0" encoding="utf-8"?>
<!-- Generator: Adobe Illustrator 24.0.1, SVG Export Plug-In . SVG Version: 6.00 Build 0)  -->
<svg version="1.1" id="Capa_1" xmlns="http://www.w3.org/2000/svg" xmlns:xlink="http://www.w3.org/1999/xlink" x="0px" y="0px"
	 viewBox="0 0 512 512" style="enable-background:new 0 0 512 512;" xml:space="preserve">
<style type="text/css">
	.st0{fill:#C9ADF2;}
	.st1{fill:#80DFB5;}
	.st2{fill:#36D39A;}
	.st3{fill:#B0EBCE;}
	.st4{fill:#00C67F;}
	.st5{fill:#45068E;}
</style>
<g>
	<g>
		<path class="st0" d="M99.1,412.9l-37.3-4L16,454.7c-11.4,11.4-11.4,29.9,0,41.3c11.4,11.4,29.9,11.4,41.3,0l45.8-45.8L99.1,412.9z
			"/>
		<path class="st1" d="M473.4,38.6c-20.8-20.8-48-31.1-75.2-31.1S343.7,17.9,323,38.6l-21.8,21.8l59.3,91.1l91.1,59.3l21.8-21.8
			C514.9,147.5,514.9,80.2,473.4,38.6z"/>
		<path class="st2" d="M420.8,9.9c-7.5-1.6-15.1-2.4-22.7-2.4c-27.2,0-54.4,10.4-75.2,31.1l-21.8,21.8l10.7,16.4
			C346.7,48.4,383.7,26,420.8,9.9z"/>
		<path class="st3" d="M301.1,60.5l-130,130c-18.4,18.4-29.4,42.8-30.9,68.7l-1.4,23c-2.1,34.1-16.6,66.2-40.7,90.4l-36.2,36.2
			l41.3,41.3l36.2-36.2c24.2-24.2,56.3-38.6,90.4-40.7l23-1.4c25.9-1.6,50.4-12.6,68.7-30.9l130-130L301.1,60.5z"/>
		<g>
			<path class="st4" d="M364.8,180.8l-33.6-33.6c-14.9-14.9-39.1-14.9-54,0l-76.6,76.6c-14.9,14.9-14.9,39.1,0,54l33.6,33.6
				c14.9,14.9,39.1,14.9,54,0l76.6-76.6C379.7,219.9,379.7,195.7,364.8,180.8L364.8,180.8z"/>
			<path class="st1" d="M272.7,112.2c13.6-13.6,27.8-26.3,42.3-37.9l-13.8-13.8l-130,130c-18.4,18.4-29.4,42.8-30.9,68.7l-1.4,23
				c-2.1,34.1-16.6,66.2-40.7,90.4l-36.2,36.2l41.3,41.3l36.2-36.2c0.8-0.8,1.6-1.6,2.5-2.4C134.4,318.2,180.8,204.1,272.7,112.2
				L272.7,112.2z"/>
		</g>
	</g>
	<g>
		<path class="st5" d="M346.3,305.5l-30.1,30.1c-17.1,17.1-39.8,27.3-63.9,28.8l-23,1.4c-35.9,2.2-69.8,17.4-95.2,42.9l-30.9,30.9
			l-30.7-30.7l30.9-30.9c25.5-25.5,40.7-59.3,42.9-95.2l1.4-23c1.5-24.1,11.7-46.8,28.8-63.9l78.1-78.1c2.9-2.9,2.9-7.7,0-10.6
			s-7.7-2.9-10.6,0l-78.1,78.1c-19.7,19.7-31.4,45.8-33.1,73.6l-1.4,23c-2,32.3-15.6,62.7-38.5,85.5c-16.1,16-66.1,66.1-82,82
			c-14.3,14.3-14.3,37.6,0,51.9c14.3,14.3,37.5,14.3,51.9,0c9-9,73.3-73.3,82-82c22.9-22.9,53.3-36.6,85.6-38.5l23-1.4
			c27.8-1.7,53.9-13.5,73.6-33.1l30.1-30.1c2.9-2.9,2.9-7.7,0-10.6C354,302.5,349.2,302.5,346.3,305.5L346.3,305.5z M52.1,490.6
			c-8.5,8.5-22.2,8.5-30.7,0c-8.5-8.5-8.5-22.2,0-30.7l40.5-40.5l30.7,30.7L52.1,490.6z"/>
		<path class="st5" d="M195.3,283.1l33.6,33.6c17.9,17.9,46.7,17.9,64.6,0l76.6-76.6c17.9-17.9,17.9-46.7,0-64.6l-33.6-33.6
			c-17.9-17.8-46.7-17.9-64.6,0l-76.6,76.6C177.5,236.4,177.5,265.3,195.3,283.1z M205.9,229.2l76.6-76.6c12-12,31.4-12,43.4,0
			l33.6,33.6c12,12,12,31.4,0,43.4l-76.6,76.6c-12,12-31.4,12-43.4,0l-33.6-33.6C193.9,260.5,193.9,241.1,205.9,229.2L205.9,229.2z"
			/>
		<path class="st5" d="M235.6,256.7c3.4-2.3,4.4-7,2-10.4c-2.7-4.1-2.2-9.5,1.3-13c4-4,10.6-4,14.6,0c4,4,4,10.6,0,14.6c0,0,0,0,0,0
			c-1.3,1.3-2,2.9-2.2,4.6c-0.7,7,7.8,11,12.8,6c6.4-6.4,17.6-1.9,17.6,7.3c0,9.1-11.1,13.8-17.6,7.3c-2.9-2.9-7.7-2.9-10.6,0
			s-2.9,7.7,0,10.6c15.9,15.9,43.2,4.5,43.2-17.9c0-13.9-11.2-25.2-25.2-25.3c-0.1-22.5-27.4-33.5-43.2-17.8c-8.5,8.5-9.8,22-3.1,32
			C227.5,258.1,232.2,259,235.6,256.7L235.6,256.7z"/>
		<path class="st5" d="M335.4,237.6c10.8-10.8,10.8-28.3,0-39.1c-10.8-10.8-28.3-10.8-39.1,0c-0.9,0.9-1.7,1.8-2.4,2.8
			c-2.7-11.3-1.7-19.9-1.6-20.1c0.6-4.1-2.2-7.9-6.3-8.5c-4.1-0.6-7.9,2.2-8.5,6.3c-0.2,1.2-4,29.5,16.1,55.2
			C303.6,248.1,323.5,249.5,335.4,237.6L335.4,237.6z M306.9,209.1c4.9-4.9,12.9-4.9,17.9,0c4.9,4.9,4.9,12.9,0,17.9
			c-4.9,4.9-12.9,4.9-17.9,0C302,222.1,302,214.1,306.9,209.1z"/>
		<path class="st5" d="M478.7,33.4c-44.5-44.5-116.5-44.5-161,0c-4.7,4.7-6,6-52.5,52.5c-2.9,2.9-2.9,7.7,0,10.6s7.7,2.9,10.6,0
			l25.3-25.3l139.8,139.8l-73.4,73.4c-2.9,2.9-2.9,7.7,0,10.6s7.7,2.9,10.6,0c9.2-9.2,90.9-90.9,100.5-100.5
			C523,150,523,77.7,478.7,33.4z M468.1,183.7l-16.5,16.5L311.8,60.5L328.3,44c38.6-38.6,101.1-38.6,139.8,0
			C506.6,82.5,506.6,145.2,468.1,183.7L468.1,183.7z"/>
		<path class="st5" d="M374.4,43.9l-8,8c-2.9,2.9-2.9,7.7,0,10.6s7.7,2.9,10.6,0l8-8c2.9-2.9,2.9-7.7,0-10.6
			C382,41,377.3,41,374.4,43.9z"/>
		<path class="st5" d="M468.1,127.1c-2.9-2.9-7.7-2.9-10.6,0l-8,8c-2.9,2.9-2.9,7.7,0,10.6s7.7,2.9,10.6,0l8-8
			C471,134.7,471,130,468.1,127.1z"/>
		<path class="st5" d="M423.9,102c-7.9,0.5-14.5-6-13.9-13.9c0.3-4.1-2.8-7.7-7-8c-4.1-0.3-7.7,2.8-8,7
			c-1.2,16.9,12.9,31.1,29.9,29.9c4.1-0.3,7.3-3.9,7-8C431.6,104.9,428.1,101.7,423.9,102z"/>
	</g>
</g>
</svg>
